<mxfile host="app.diagrams.net" modified="2024-04-02T08:22:13.514Z" agent="Mozilla/5.0 (Windows NT 10.0; Win64; x64) AppleWebKit/537.36 (KHTML, like Gecko) Chrome/123.0.0.0 Safari/537.36" etag="olVlLIsV8iQ0iPOvtSPY" version="24.2.1" type="device">
  <diagram name="페이지-1" id="ReDvfFOf9SGNNVPX4HKJ">
    <mxGraphModel dx="1028" dy="737" grid="1" gridSize="10" guides="1" tooltips="1" connect="1" arrows="1" fold="1" page="1" pageScale="1" pageWidth="690" pageHeight="980" math="0" shadow="0">
      <root>
        <mxCell id="0" />
        <mxCell id="1" parent="0" />
        <mxCell id="xZ9wBhcrswutEA7cSDEz-1" value="" style="rounded=0;whiteSpace=wrap;html=1;" parent="1" vertex="1">
          <mxGeometry x="165" y="270" width="395" height="470" as="geometry" />
        </mxCell>
        <mxCell id="xZ9wBhcrswutEA7cSDEz-3" value="회원" style="shape=umlActor;verticalLabelPosition=bottom;verticalAlign=top;html=1;outlineConnect=0;strokeColor=#000000;fillColor=#1F44FF;" parent="1" vertex="1">
          <mxGeometry x="100" y="500" width="30" height="60" as="geometry" />
        </mxCell>
        <mxCell id="xZ9wBhcrswutEA7cSDEz-4" value="비회원" style="shape=umlActor;verticalLabelPosition=bottom;verticalAlign=top;html=1;outlineConnect=0;fillColor=#808080;" parent="1" vertex="1">
          <mxGeometry x="100" y="305" width="30" height="60" as="geometry" />
        </mxCell>
        <mxCell id="xZ9wBhcrswutEA7cSDEz-11" value="관리자" style="shape=umlActor;verticalLabelPosition=bottom;verticalAlign=top;html=1;outlineConnect=0;fillColor=#33FF33;" parent="1" vertex="1">
          <mxGeometry x="580" y="310" width="30" height="60" as="geometry" />
        </mxCell>
        <mxCell id="xZ9wBhcrswutEA7cSDEz-12" value="&lt;h3&gt;&lt;font style=&quot;&quot; color=&quot;#ff8000&quot;&gt;소개&lt;/font&gt;&lt;/h3&gt;" style="ellipse;whiteSpace=wrap;html=1;strokeWidth=3;" parent="1" vertex="1">
          <mxGeometry x="260" y="320" width="50" height="30" as="geometry" />
        </mxCell>
        <mxCell id="xZ9wBhcrswutEA7cSDEz-13" value="&lt;font style=&quot;font-size: 7px;&quot;&gt;인구수&lt;/font&gt;" style="ellipse;whiteSpace=wrap;html=1;" parent="1" vertex="1">
          <mxGeometry x="210" y="280" width="40" height="20" as="geometry" />
        </mxCell>
        <mxCell id="xZ9wBhcrswutEA7cSDEz-15" value="&lt;font style=&quot;font-size: 6px;&quot;&gt;오시는길&lt;/font&gt;" style="ellipse;whiteSpace=wrap;html=1;" parent="1" vertex="1">
          <mxGeometry x="250" y="280" width="40" height="20" as="geometry" />
        </mxCell>
        <mxCell id="xZ9wBhcrswutEA7cSDEz-16" value="&lt;font style=&quot;font-size: 10px;&quot;&gt;역사&lt;/font&gt;" style="ellipse;whiteSpace=wrap;html=1;" parent="1" vertex="1">
          <mxGeometry x="290" y="280" width="40" height="20" as="geometry" />
        </mxCell>
        <mxCell id="xZ9wBhcrswutEA7cSDEz-17" value="&lt;font style=&quot;font-size: 6px;&quot;&gt;위치적 장점&lt;/font&gt;" style="ellipse;whiteSpace=wrap;html=1;" parent="1" vertex="1">
          <mxGeometry x="330" y="280" width="40" height="20" as="geometry" />
        </mxCell>
        <mxCell id="xZ9wBhcrswutEA7cSDEz-21" style="edgeStyle=orthogonalEdgeStyle;rounded=0;orthogonalLoop=1;jettySize=auto;html=1;exitX=0.5;exitY=1;exitDx=0;exitDy=0;entryX=0.273;entryY=0.083;entryDx=0;entryDy=0;entryPerimeter=0;" parent="1" source="xZ9wBhcrswutEA7cSDEz-15" target="xZ9wBhcrswutEA7cSDEz-12" edge="1">
          <mxGeometry relative="1" as="geometry" />
        </mxCell>
        <mxCell id="xZ9wBhcrswutEA7cSDEz-24" value="" style="endArrow=classic;html=1;rounded=0;entryX=1;entryY=0;entryDx=0;entryDy=0;" parent="1" target="xZ9wBhcrswutEA7cSDEz-12" edge="1">
          <mxGeometry width="50" height="50" relative="1" as="geometry">
            <mxPoint x="310" y="300" as="sourcePoint" />
            <mxPoint x="270" y="430" as="targetPoint" />
            <Array as="points">
              <mxPoint x="310" y="300" />
            </Array>
          </mxGeometry>
        </mxCell>
        <mxCell id="xZ9wBhcrswutEA7cSDEz-25" value="" style="endArrow=classic;html=1;rounded=0;exitX=0.5;exitY=1;exitDx=0;exitDy=0;entryX=1;entryY=0.5;entryDx=0;entryDy=0;" parent="1" source="xZ9wBhcrswutEA7cSDEz-17" target="xZ9wBhcrswutEA7cSDEz-12" edge="1">
          <mxGeometry width="50" height="50" relative="1" as="geometry">
            <mxPoint x="220" y="480" as="sourcePoint" />
            <mxPoint x="270" y="430" as="targetPoint" />
          </mxGeometry>
        </mxCell>
        <mxCell id="xZ9wBhcrswutEA7cSDEz-26" value="" style="endArrow=classic;html=1;rounded=0;exitX=0.5;exitY=1;exitDx=0;exitDy=0;entryX=0;entryY=0.5;entryDx=0;entryDy=0;" parent="1" source="xZ9wBhcrswutEA7cSDEz-13" target="xZ9wBhcrswutEA7cSDEz-12" edge="1">
          <mxGeometry width="50" height="50" relative="1" as="geometry">
            <mxPoint x="220" y="480" as="sourcePoint" />
            <mxPoint x="270" y="430" as="targetPoint" />
          </mxGeometry>
        </mxCell>
        <mxCell id="xZ9wBhcrswutEA7cSDEz-27" value="&lt;font style=&quot;font-size: 6px;&quot;&gt;&amp;lt;&amp;lt;include&amp;gt;&amp;gt;&lt;/font&gt;" style="text;html=1;align=center;verticalAlign=middle;whiteSpace=wrap;rounded=0;" parent="1" vertex="1">
          <mxGeometry x="345" y="300" width="20" height="20" as="geometry" />
        </mxCell>
        <mxCell id="xZ9wBhcrswutEA7cSDEz-28" value="&lt;font style=&quot;font-size: 6px;&quot;&gt;&amp;lt;&amp;lt;include&amp;gt;&amp;gt;&lt;/font&gt;" style="text;html=1;align=center;verticalAlign=middle;whiteSpace=wrap;rounded=0;" parent="1" vertex="1">
          <mxGeometry x="210" y="300" width="20" height="20" as="geometry" />
        </mxCell>
        <mxCell id="xZ9wBhcrswutEA7cSDEz-29" value="&lt;font style=&quot;font-size: 6px;&quot;&gt;&amp;lt;&amp;lt;include&amp;gt;&amp;gt;&lt;/font&gt;" style="text;html=1;align=center;verticalAlign=middle;whiteSpace=wrap;rounded=0;" parent="1" vertex="1">
          <mxGeometry x="250" y="300" width="20" height="20" as="geometry" />
        </mxCell>
        <mxCell id="xZ9wBhcrswutEA7cSDEz-30" value="&lt;font style=&quot;font-size: 6px;&quot;&gt;&amp;lt;&amp;lt;include&amp;gt;&amp;gt;&lt;/font&gt;" style="text;html=1;align=center;verticalAlign=middle;whiteSpace=wrap;rounded=0;" parent="1" vertex="1">
          <mxGeometry x="280" y="300" width="20" height="20" as="geometry" />
        </mxCell>
        <mxCell id="xZ9wBhcrswutEA7cSDEz-32" value="" style="endArrow=classic;html=1;rounded=0;exitX=0.5;exitY=0.5;exitDx=0;exitDy=0;exitPerimeter=0;entryX=1;entryY=0.5;entryDx=0;entryDy=0;" parent="1" source="xZ9wBhcrswutEA7cSDEz-11" target="xZ9wBhcrswutEA7cSDEz-33" edge="1">
          <mxGeometry width="50" height="50" relative="1" as="geometry">
            <mxPoint x="280" y="480" as="sourcePoint" />
            <mxPoint x="330" y="430" as="targetPoint" />
          </mxGeometry>
        </mxCell>
        <mxCell id="xZ9wBhcrswutEA7cSDEz-33" value="내용수정" style="ellipse;whiteSpace=wrap;html=1;strokeWidth=1;fontSize=8;" parent="1" vertex="1">
          <mxGeometry x="360" y="330" width="40" height="20" as="geometry" />
        </mxCell>
        <mxCell id="xZ9wBhcrswutEA7cSDEz-34" value="" style="endArrow=classic;html=1;rounded=0;exitX=1;exitY=1;exitDx=0;exitDy=0;entryX=0;entryY=0.5;entryDx=0;entryDy=0;" parent="1" source="xZ9wBhcrswutEA7cSDEz-12" target="xZ9wBhcrswutEA7cSDEz-33" edge="1">
          <mxGeometry width="50" height="50" relative="1" as="geometry">
            <mxPoint x="280" y="480" as="sourcePoint" />
            <mxPoint x="330" y="430" as="targetPoint" />
          </mxGeometry>
        </mxCell>
        <mxCell id="xZ9wBhcrswutEA7cSDEz-35" value="" style="endArrow=classic;html=1;rounded=0;exitX=0.5;exitY=0.5;exitDx=0;exitDy=0;exitPerimeter=0;entryX=0;entryY=0.5;entryDx=0;entryDy=0;" parent="1" source="xZ9wBhcrswutEA7cSDEz-4" target="xZ9wBhcrswutEA7cSDEz-12" edge="1">
          <mxGeometry width="50" height="50" relative="1" as="geometry">
            <mxPoint x="240" y="460" as="sourcePoint" />
            <mxPoint x="290" y="410" as="targetPoint" />
          </mxGeometry>
        </mxCell>
        <mxCell id="xZ9wBhcrswutEA7cSDEz-36" value="&amp;lt;&amp;lt;extends&amp;gt;&amp;gt;" style="text;html=1;align=center;verticalAlign=middle;whiteSpace=wrap;rounded=0;fontSize=7;" parent="1" vertex="1">
          <mxGeometry x="450" y="320" width="40" height="20" as="geometry" />
        </mxCell>
        <mxCell id="xZ9wBhcrswutEA7cSDEz-37" value="&lt;span&gt;&lt;font color=&quot;#ff8000&quot;&gt;교통 및 상권&lt;/font&gt;&lt;/span&gt;" style="ellipse;whiteSpace=wrap;html=1;fontSize=12;strokeWidth=3;fontColor=#7EA6E0;fontStyle=1" parent="1" vertex="1">
          <mxGeometry x="255" y="415" width="70" height="40" as="geometry" />
        </mxCell>
        <mxCell id="xZ9wBhcrswutEA7cSDEz-38" value="&lt;font style=&quot;font-size: 7px;&quot;&gt;인구수&lt;/font&gt;" style="ellipse;whiteSpace=wrap;html=1;" parent="1" vertex="1">
          <mxGeometry x="210" y="380" width="40" height="20" as="geometry" />
        </mxCell>
        <mxCell id="xZ9wBhcrswutEA7cSDEz-39" value="&lt;font style=&quot;font-size: 7px;&quot;&gt;오시는 길&lt;/font&gt;" style="ellipse;whiteSpace=wrap;html=1;" parent="1" vertex="1">
          <mxGeometry x="250" y="380" width="40" height="20" as="geometry" />
        </mxCell>
        <mxCell id="xZ9wBhcrswutEA7cSDEz-40" value="&lt;font style=&quot;font-size: 8px;&quot;&gt;주변상권&lt;/font&gt;" style="ellipse;whiteSpace=wrap;html=1;" parent="1" vertex="1">
          <mxGeometry x="290" y="380" width="40" height="20" as="geometry" />
        </mxCell>
        <mxCell id="xZ9wBhcrswutEA7cSDEz-41" value="&lt;font style=&quot;font-size: 6px;&quot;&gt;주요시설&lt;/font&gt;" style="ellipse;whiteSpace=wrap;html=1;" parent="1" vertex="1">
          <mxGeometry x="330" y="380" width="40" height="20" as="geometry" />
        </mxCell>
        <mxCell id="xZ9wBhcrswutEA7cSDEz-42" value="" style="endArrow=classic;html=1;rounded=0;exitX=1;exitY=1;exitDx=0;exitDy=0;entryX=0;entryY=0;entryDx=0;entryDy=0;" parent="1" source="xZ9wBhcrswutEA7cSDEz-38" target="xZ9wBhcrswutEA7cSDEz-37" edge="1">
          <mxGeometry width="50" height="50" relative="1" as="geometry">
            <mxPoint x="260" y="480" as="sourcePoint" />
            <mxPoint x="310" y="430" as="targetPoint" />
          </mxGeometry>
        </mxCell>
        <mxCell id="xZ9wBhcrswutEA7cSDEz-43" value="" style="endArrow=classic;html=1;rounded=0;exitX=0.5;exitY=1;exitDx=0;exitDy=0;entryX=0.369;entryY=0.035;entryDx=0;entryDy=0;entryPerimeter=0;" parent="1" source="xZ9wBhcrswutEA7cSDEz-39" target="xZ9wBhcrswutEA7cSDEz-37" edge="1">
          <mxGeometry width="50" height="50" relative="1" as="geometry">
            <mxPoint x="260" y="480" as="sourcePoint" />
            <mxPoint x="310" y="430" as="targetPoint" />
          </mxGeometry>
        </mxCell>
        <mxCell id="xZ9wBhcrswutEA7cSDEz-44" value="" style="endArrow=classic;html=1;rounded=0;exitX=0.5;exitY=1;exitDx=0;exitDy=0;entryX=0.67;entryY=-0.033;entryDx=0;entryDy=0;entryPerimeter=0;" parent="1" source="xZ9wBhcrswutEA7cSDEz-40" target="xZ9wBhcrswutEA7cSDEz-37" edge="1">
          <mxGeometry width="50" height="50" relative="1" as="geometry">
            <mxPoint x="260" y="480" as="sourcePoint" />
            <mxPoint x="310" y="430" as="targetPoint" />
          </mxGeometry>
        </mxCell>
        <mxCell id="xZ9wBhcrswutEA7cSDEz-45" value="" style="endArrow=classic;html=1;rounded=0;exitX=0.5;exitY=1;exitDx=0;exitDy=0;" parent="1" source="xZ9wBhcrswutEA7cSDEz-41" edge="1">
          <mxGeometry width="50" height="50" relative="1" as="geometry">
            <mxPoint x="260" y="480" as="sourcePoint" />
            <mxPoint x="320" y="420" as="targetPoint" />
          </mxGeometry>
        </mxCell>
        <mxCell id="xZ9wBhcrswutEA7cSDEz-46" value="내용수정" style="ellipse;whiteSpace=wrap;html=1;strokeWidth=1;fontSize=8;" parent="1" vertex="1">
          <mxGeometry x="370" y="425" width="40" height="20" as="geometry" />
        </mxCell>
        <mxCell id="xZ9wBhcrswutEA7cSDEz-47" value="" style="endArrow=classic;html=1;rounded=0;exitX=1;exitY=0.5;exitDx=0;exitDy=0;entryX=0;entryY=0.5;entryDx=0;entryDy=0;" parent="1" source="xZ9wBhcrswutEA7cSDEz-37" target="xZ9wBhcrswutEA7cSDEz-46" edge="1">
          <mxGeometry width="50" height="50" relative="1" as="geometry">
            <mxPoint x="326.5" y="460" as="sourcePoint" />
            <mxPoint x="383.5" y="455" as="targetPoint" />
          </mxGeometry>
        </mxCell>
        <mxCell id="xZ9wBhcrswutEA7cSDEz-48" value="" style="endArrow=classic;html=1;rounded=0;entryX=1;entryY=0.5;entryDx=0;entryDy=0;exitX=0.5;exitY=0.5;exitDx=0;exitDy=0;exitPerimeter=0;" parent="1" source="xZ9wBhcrswutEA7cSDEz-11" edge="1">
          <mxGeometry width="50" height="50" relative="1" as="geometry">
            <mxPoint x="605" y="434.66" as="sourcePoint" />
            <mxPoint x="410" y="434.66" as="targetPoint" />
          </mxGeometry>
        </mxCell>
        <mxCell id="xZ9wBhcrswutEA7cSDEz-49" value="&lt;font style=&quot;font-size: 6px;&quot;&gt;&amp;lt;&amp;lt;include&amp;gt;&amp;gt;&lt;/font&gt;" style="text;html=1;align=center;verticalAlign=middle;whiteSpace=wrap;rounded=0;" parent="1" vertex="1">
          <mxGeometry x="220" y="400" width="20" height="20" as="geometry" />
        </mxCell>
        <mxCell id="xZ9wBhcrswutEA7cSDEz-50" value="&lt;font style=&quot;font-size: 6px;&quot;&gt;&amp;lt;&amp;lt;include&amp;gt;&amp;gt;&lt;/font&gt;" style="text;html=1;align=center;verticalAlign=middle;whiteSpace=wrap;rounded=0;" parent="1" vertex="1">
          <mxGeometry x="250" y="390" width="20" height="20" as="geometry" />
        </mxCell>
        <mxCell id="xZ9wBhcrswutEA7cSDEz-51" value="&lt;font style=&quot;font-size: 6px;&quot;&gt;&amp;lt;&amp;lt;include&amp;gt;&amp;gt;&lt;/font&gt;" style="text;html=1;align=center;verticalAlign=middle;whiteSpace=wrap;rounded=0;" parent="1" vertex="1">
          <mxGeometry x="280" y="390" width="20" height="20" as="geometry" />
        </mxCell>
        <mxCell id="xZ9wBhcrswutEA7cSDEz-53" value="&lt;font style=&quot;font-size: 6px;&quot;&gt;&amp;lt;&amp;lt;include&amp;gt;&amp;gt;&lt;/font&gt;" style="text;html=1;align=center;verticalAlign=middle;whiteSpace=wrap;rounded=0;" parent="1" vertex="1">
          <mxGeometry x="335" y="400" width="20" height="20" as="geometry" />
        </mxCell>
        <mxCell id="xZ9wBhcrswutEA7cSDEz-54" value="&amp;lt;&amp;lt;extends&amp;gt;&amp;gt;" style="text;html=1;align=center;verticalAlign=middle;whiteSpace=wrap;rounded=0;fontSize=7;" parent="1" vertex="1">
          <mxGeometry x="440" y="380" width="40" height="20" as="geometry" />
        </mxCell>
        <mxCell id="xZ9wBhcrswutEA7cSDEz-55" value="&lt;font color=&quot;#ff8000&quot;&gt;&lt;b&gt;행사&lt;/b&gt;&lt;/font&gt;" style="ellipse;whiteSpace=wrap;html=1;fontColor=#9999FF;strokeWidth=3;" parent="1" vertex="1">
          <mxGeometry x="270" y="520" width="80" height="40" as="geometry" />
        </mxCell>
        <mxCell id="xZ9wBhcrswutEA7cSDEz-56" value="&lt;font color=&quot;#ff8000&quot;&gt;공지사항&lt;/font&gt;" style="ellipse;whiteSpace=wrap;html=1;strokeWidth=3;fontStyle=1" parent="1" vertex="1">
          <mxGeometry x="305" y="610" width="80" height="40" as="geometry" />
        </mxCell>
        <mxCell id="xZ9wBhcrswutEA7cSDEz-57" value="글 수정" style="ellipse;whiteSpace=wrap;html=1;" parent="1" vertex="1">
          <mxGeometry x="295" y="570" width="50" height="30" as="geometry" />
        </mxCell>
        <mxCell id="xZ9wBhcrswutEA7cSDEz-58" value="글 삭제" style="ellipse;whiteSpace=wrap;html=1;" parent="1" vertex="1">
          <mxGeometry x="345" y="570" width="50" height="30" as="geometry" />
        </mxCell>
        <mxCell id="xZ9wBhcrswutEA7cSDEz-59" value="글 등록" style="ellipse;whiteSpace=wrap;html=1;" parent="1" vertex="1">
          <mxGeometry x="395" y="570" width="50" height="30" as="geometry" />
        </mxCell>
        <mxCell id="xZ9wBhcrswutEA7cSDEz-60" value="&lt;font style=&quot;font-size: 5px;&quot;&gt;크리스마스 행사&lt;/font&gt;" style="ellipse;whiteSpace=wrap;html=1;" parent="1" vertex="1">
          <mxGeometry x="210" y="490" width="40" height="20" as="geometry" />
        </mxCell>
        <mxCell id="xZ9wBhcrswutEA7cSDEz-62" value="&lt;font style=&quot;font-size: 10px;&quot;&gt;419축제&lt;/font&gt;" style="ellipse;whiteSpace=wrap;html=1;" parent="1" vertex="1">
          <mxGeometry x="250" y="490" width="40" height="20" as="geometry" />
        </mxCell>
        <mxCell id="xZ9wBhcrswutEA7cSDEz-63" value="&lt;font style=&quot;font-size: 7px;&quot;&gt;빨래골축제&lt;/font&gt;" style="ellipse;whiteSpace=wrap;html=1;" parent="1" vertex="1">
          <mxGeometry x="290" y="490" width="40" height="20" as="geometry" />
        </mxCell>
        <mxCell id="xZ9wBhcrswutEA7cSDEz-64" value="&lt;font style=&quot;font-size: 6px;&quot;&gt;우이천 축제&lt;/font&gt;" style="ellipse;whiteSpace=wrap;html=1;" parent="1" vertex="1">
          <mxGeometry x="330" y="490" width="40" height="20" as="geometry" />
        </mxCell>
        <mxCell id="xZ9wBhcrswutEA7cSDEz-65" value="&lt;font style=&quot;font-size: 4px;&quot;&gt;고려대 행진 축제&lt;/font&gt;" style="ellipse;whiteSpace=wrap;html=1;" parent="1" vertex="1">
          <mxGeometry x="370" y="490" width="40" height="20" as="geometry" />
        </mxCell>
        <mxCell id="xZ9wBhcrswutEA7cSDEz-66" value="" style="endArrow=classic;html=1;rounded=0;exitX=0.5;exitY=1;exitDx=0;exitDy=0;entryX=0;entryY=0.5;entryDx=0;entryDy=0;" parent="1" source="xZ9wBhcrswutEA7cSDEz-60" target="xZ9wBhcrswutEA7cSDEz-55" edge="1">
          <mxGeometry width="50" height="50" relative="1" as="geometry">
            <mxPoint x="248.56" y="500.05" as="sourcePoint" />
            <mxPoint x="269.56" y="524.05" as="targetPoint" />
          </mxGeometry>
        </mxCell>
        <mxCell id="xZ9wBhcrswutEA7cSDEz-69" value="" style="endArrow=classic;html=1;rounded=0;exitX=0.321;exitY=1.012;exitDx=0;exitDy=0;entryX=0.246;entryY=0.139;entryDx=0;entryDy=0;entryPerimeter=0;exitPerimeter=0;" parent="1" source="xZ9wBhcrswutEA7cSDEz-62" target="xZ9wBhcrswutEA7cSDEz-55" edge="1">
          <mxGeometry width="50" height="50" relative="1" as="geometry">
            <mxPoint x="210" y="530" as="sourcePoint" />
            <mxPoint x="250" y="560" as="targetPoint" />
          </mxGeometry>
        </mxCell>
        <mxCell id="xZ9wBhcrswutEA7cSDEz-70" value="" style="endArrow=classic;html=1;rounded=0;exitX=0.375;exitY=1.05;exitDx=0;exitDy=0;entryX=0.361;entryY=0.062;entryDx=0;entryDy=0;entryPerimeter=0;exitPerimeter=0;" parent="1" source="xZ9wBhcrswutEA7cSDEz-63" target="xZ9wBhcrswutEA7cSDEz-55" edge="1">
          <mxGeometry width="50" height="50" relative="1" as="geometry">
            <mxPoint x="215" y="530" as="sourcePoint" />
            <mxPoint x="255" y="560" as="targetPoint" />
            <Array as="points">
              <mxPoint x="300" y="520" />
            </Array>
          </mxGeometry>
        </mxCell>
        <mxCell id="xZ9wBhcrswutEA7cSDEz-71" value="" style="endArrow=classic;html=1;rounded=0;exitX=0.375;exitY=1.05;exitDx=0;exitDy=0;entryX=0.801;entryY=0.12;entryDx=0;entryDy=0;entryPerimeter=0;exitPerimeter=0;" parent="1" target="xZ9wBhcrswutEA7cSDEz-55" edge="1">
          <mxGeometry width="50" height="50" relative="1" as="geometry">
            <mxPoint x="341.12" y="510" as="sourcePoint" />
            <mxPoint x="335.12" y="521" as="targetPoint" />
            <Array as="points">
              <mxPoint x="336.12" y="519" />
            </Array>
          </mxGeometry>
        </mxCell>
        <mxCell id="xZ9wBhcrswutEA7cSDEz-72" value="" style="endArrow=classic;html=1;rounded=0;exitX=0.348;exitY=1.012;exitDx=0;exitDy=0;entryX=0.955;entryY=0.369;entryDx=0;entryDy=0;entryPerimeter=0;exitPerimeter=0;" parent="1" source="xZ9wBhcrswutEA7cSDEz-65" target="xZ9wBhcrswutEA7cSDEz-55" edge="1">
          <mxGeometry width="50" height="50" relative="1" as="geometry">
            <mxPoint x="365" y="520" as="sourcePoint" />
            <mxPoint x="357.88" y="535" as="targetPoint" />
            <Array as="points" />
          </mxGeometry>
        </mxCell>
        <mxCell id="xZ9wBhcrswutEA7cSDEz-73" value="" style="endArrow=classic;html=1;rounded=0;exitX=0.399;exitY=0.92;exitDx=0;exitDy=0;entryX=0;entryY=0;entryDx=0;entryDy=0;exitPerimeter=0;" parent="1" source="xZ9wBhcrswutEA7cSDEz-57" target="xZ9wBhcrswutEA7cSDEz-56" edge="1">
          <mxGeometry width="50" height="50" relative="1" as="geometry">
            <mxPoint x="250" y="590" as="sourcePoint" />
            <mxPoint x="290" y="620" as="targetPoint" />
          </mxGeometry>
        </mxCell>
        <mxCell id="xZ9wBhcrswutEA7cSDEz-74" value="" style="endArrow=classic;html=1;rounded=0;exitX=0.299;exitY=0.945;exitDx=0;exitDy=0;entryX=1;entryY=0;entryDx=0;entryDy=0;exitPerimeter=0;" parent="1" source="xZ9wBhcrswutEA7cSDEz-59" target="xZ9wBhcrswutEA7cSDEz-56" edge="1">
          <mxGeometry width="50" height="50" relative="1" as="geometry">
            <mxPoint x="400" y="600" as="sourcePoint" />
            <mxPoint x="402" y="618" as="targetPoint" />
          </mxGeometry>
        </mxCell>
        <mxCell id="xZ9wBhcrswutEA7cSDEz-75" value="" style="endArrow=classic;html=1;rounded=0;exitX=0.5;exitY=1;exitDx=0;exitDy=0;entryX=1;entryY=0;entryDx=0;entryDy=0;" parent="1" source="xZ9wBhcrswutEA7cSDEz-58" edge="1">
          <mxGeometry width="50" height="50" relative="1" as="geometry">
            <mxPoint x="382" y="592" as="sourcePoint" />
            <mxPoint x="345" y="610" as="targetPoint" />
          </mxGeometry>
        </mxCell>
        <mxCell id="xZ9wBhcrswutEA7cSDEz-76" value="&lt;font style=&quot;font-size: 6px;&quot;&gt;&amp;lt;&amp;lt;include&amp;gt;&amp;gt;&lt;/font&gt;" style="text;html=1;align=center;verticalAlign=middle;whiteSpace=wrap;rounded=0;" parent="1" vertex="1">
          <mxGeometry x="385" y="510" width="20" height="20" as="geometry" />
        </mxCell>
        <mxCell id="xZ9wBhcrswutEA7cSDEz-77" value="&lt;font style=&quot;font-size: 6px;&quot;&gt;&amp;lt;&amp;lt;include&amp;gt;&amp;gt;&lt;/font&gt;" style="text;html=1;align=center;verticalAlign=middle;whiteSpace=wrap;rounded=0;" parent="1" vertex="1">
          <mxGeometry x="340" y="510" width="20" height="20" as="geometry" />
        </mxCell>
        <mxCell id="xZ9wBhcrswutEA7cSDEz-78" value="&lt;font style=&quot;font-size: 6px;&quot;&gt;&amp;lt;&amp;lt;include&amp;gt;&amp;gt;&lt;/font&gt;" style="text;html=1;align=center;verticalAlign=middle;whiteSpace=wrap;rounded=0;" parent="1" vertex="1">
          <mxGeometry x="300" y="500" width="20" height="20" as="geometry" />
        </mxCell>
        <mxCell id="xZ9wBhcrswutEA7cSDEz-79" value="&lt;font style=&quot;font-size: 6px;&quot;&gt;&amp;lt;&amp;lt;include&amp;gt;&amp;gt;&lt;/font&gt;" style="text;html=1;align=center;verticalAlign=middle;whiteSpace=wrap;rounded=0;" parent="1" vertex="1">
          <mxGeometry x="250" y="500" width="20" height="20" as="geometry" />
        </mxCell>
        <mxCell id="xZ9wBhcrswutEA7cSDEz-80" value="&lt;font style=&quot;font-size: 6px;&quot;&gt;&amp;lt;&amp;lt;include&amp;gt;&amp;gt;&lt;/font&gt;" style="text;html=1;align=center;verticalAlign=middle;whiteSpace=wrap;rounded=0;" parent="1" vertex="1">
          <mxGeometry x="240" y="520" width="20" height="20" as="geometry" />
        </mxCell>
        <mxCell id="xZ9wBhcrswutEA7cSDEz-82" value="내용수정" style="ellipse;whiteSpace=wrap;html=1;strokeWidth=1;fontSize=8;" parent="1" vertex="1">
          <mxGeometry x="440" y="490" width="40" height="20" as="geometry" />
        </mxCell>
        <mxCell id="xZ9wBhcrswutEA7cSDEz-83" value="" style="endArrow=classic;html=1;rounded=0;exitX=1;exitY=1;exitDx=0;exitDy=0;entryX=0;entryY=1;entryDx=0;entryDy=0;" parent="1" source="xZ9wBhcrswutEA7cSDEz-55" target="xZ9wBhcrswutEA7cSDEz-82" edge="1">
          <mxGeometry width="50" height="50" relative="1" as="geometry">
            <mxPoint x="360" y="490" as="sourcePoint" />
            <mxPoint x="410" y="440" as="targetPoint" />
          </mxGeometry>
        </mxCell>
        <mxCell id="xZ9wBhcrswutEA7cSDEz-85" value="" style="endArrow=classic;html=1;rounded=0;entryX=1;entryY=0;entryDx=0;entryDy=0;exitX=0.5;exitY=0.5;exitDx=0;exitDy=0;exitPerimeter=0;" parent="1" source="xZ9wBhcrswutEA7cSDEz-11" target="xZ9wBhcrswutEA7cSDEz-82" edge="1">
          <mxGeometry width="50" height="50" relative="1" as="geometry">
            <mxPoint x="610" y="380" as="sourcePoint" />
            <mxPoint x="425" y="474.66" as="targetPoint" />
          </mxGeometry>
        </mxCell>
        <mxCell id="xZ9wBhcrswutEA7cSDEz-86" value="글 관리" style="ellipse;whiteSpace=wrap;html=1;fontSize=10;" parent="1" vertex="1">
          <mxGeometry x="420" y="530" width="40" height="30" as="geometry" />
        </mxCell>
        <mxCell id="xZ9wBhcrswutEA7cSDEz-87" value="" style="endArrow=classic;html=1;rounded=0;entryX=0.075;entryY=0.669;entryDx=0;entryDy=0;entryPerimeter=0;exitX=0.5;exitY=0;exitDx=0;exitDy=0;" parent="1" source="xZ9wBhcrswutEA7cSDEz-57" edge="1">
          <mxGeometry width="50" height="50" relative="1" as="geometry">
            <mxPoint x="338.8193061462779" y="569.9980851858128" as="sourcePoint" />
            <mxPoint x="420" y="542.3900000000001" as="targetPoint" />
          </mxGeometry>
        </mxCell>
        <mxCell id="xZ9wBhcrswutEA7cSDEz-88" value="" style="endArrow=classic;html=1;rounded=0;entryX=0.094;entryY=0.669;entryDx=0;entryDy=0;entryPerimeter=0;exitX=0.702;exitY=-0.051;exitDx=0;exitDy=0;exitPerimeter=0;" parent="1" source="xZ9wBhcrswutEA7cSDEz-58" target="xZ9wBhcrswutEA7cSDEz-86" edge="1">
          <mxGeometry width="50" height="50" relative="1" as="geometry">
            <mxPoint x="340" y="577.61" as="sourcePoint" />
            <mxPoint x="440" y="550.0000000000001" as="targetPoint" />
            <Array as="points">
              <mxPoint x="400" y="560" />
            </Array>
          </mxGeometry>
        </mxCell>
        <mxCell id="xZ9wBhcrswutEA7cSDEz-89" value="" style="endArrow=classic;html=1;rounded=0;entryX=0.5;entryY=1;entryDx=0;entryDy=0;exitX=0.391;exitY=-0.051;exitDx=0;exitDy=0;exitPerimeter=0;" parent="1" source="xZ9wBhcrswutEA7cSDEz-59" target="xZ9wBhcrswutEA7cSDEz-86" edge="1">
          <mxGeometry width="50" height="50" relative="1" as="geometry">
            <mxPoint x="398.07" y="569.53" as="sourcePoint" />
            <mxPoint x="442.07" y="551.53" as="targetPoint" />
          </mxGeometry>
        </mxCell>
        <mxCell id="xZ9wBhcrswutEA7cSDEz-90" value="" style="endArrow=classic;html=1;rounded=0;entryX=1;entryY=0.5;entryDx=0;entryDy=0;exitX=0.5;exitY=0.5;exitDx=0;exitDy=0;exitPerimeter=0;" parent="1" source="xZ9wBhcrswutEA7cSDEz-11" target="xZ9wBhcrswutEA7cSDEz-86" edge="1">
          <mxGeometry width="50" height="50" relative="1" as="geometry">
            <mxPoint x="540" y="510" as="sourcePoint" />
            <mxPoint x="590" y="460" as="targetPoint" />
          </mxGeometry>
        </mxCell>
        <mxCell id="xZ9wBhcrswutEA7cSDEz-91" value="회원 가입" style="ellipse;whiteSpace=wrap;html=1;spacing=2;fontSize=9;" parent="1" vertex="1">
          <mxGeometry x="275" y="690" width="50" height="30" as="geometry" />
        </mxCell>
        <mxCell id="xZ9wBhcrswutEA7cSDEz-92" value="목록 보기" style="ellipse;whiteSpace=wrap;html=1;fontSize=9;" parent="1" vertex="1">
          <mxGeometry x="220" y="560" width="45" height="30" as="geometry" />
        </mxCell>
        <mxCell id="xZ9wBhcrswutEA7cSDEz-93" value="" style="endArrow=classic;html=1;rounded=0;exitX=0.5;exitY=0.5;exitDx=0;exitDy=0;exitPerimeter=0;entryX=0.032;entryY=0.334;entryDx=0;entryDy=0;entryPerimeter=0;" parent="1" source="xZ9wBhcrswutEA7cSDEz-3" target="xZ9wBhcrswutEA7cSDEz-92" edge="1">
          <mxGeometry width="50" height="50" relative="1" as="geometry">
            <mxPoint x="250" y="580" as="sourcePoint" />
            <mxPoint x="300" y="530" as="targetPoint" />
          </mxGeometry>
        </mxCell>
        <mxCell id="xZ9wBhcrswutEA7cSDEz-95" value="" style="endArrow=classic;html=1;rounded=0;entryX=0;entryY=0.5;entryDx=0;entryDy=0;exitX=0.969;exitY=0.819;exitDx=0;exitDy=0;exitPerimeter=0;" parent="1" source="xZ9wBhcrswutEA7cSDEz-92" target="xZ9wBhcrswutEA7cSDEz-56" edge="1">
          <mxGeometry width="50" height="50" relative="1" as="geometry">
            <mxPoint x="250" y="580" as="sourcePoint" />
            <mxPoint x="300" y="530" as="targetPoint" />
          </mxGeometry>
        </mxCell>
        <mxCell id="xZ9wBhcrswutEA7cSDEz-96" value="로그인" style="ellipse;whiteSpace=wrap;html=1;" parent="1" vertex="1">
          <mxGeometry x="192.5" y="650" width="62.5" height="30" as="geometry" />
        </mxCell>
        <mxCell id="xZ9wBhcrswutEA7cSDEz-98" value="" style="endArrow=classic;html=1;rounded=0;entryX=0.23;entryY=0.118;entryDx=0;entryDy=0;entryPerimeter=0;exitX=0.5;exitY=0.5;exitDx=0;exitDy=0;exitPerimeter=0;" parent="1" source="xZ9wBhcrswutEA7cSDEz-3" target="xZ9wBhcrswutEA7cSDEz-96" edge="1">
          <mxGeometry width="50" height="50" relative="1" as="geometry">
            <mxPoint x="110" y="600" as="sourcePoint" />
            <mxPoint x="196" y="684.98" as="targetPoint" />
          </mxGeometry>
        </mxCell>
        <mxCell id="xZ9wBhcrswutEA7cSDEz-101" value="" style="endArrow=classic;html=1;rounded=0;exitX=1;exitY=1;exitDx=0;exitDy=0;entryX=0;entryY=0;entryDx=0;entryDy=0;" parent="1" source="xZ9wBhcrswutEA7cSDEz-96" target="xZ9wBhcrswutEA7cSDEz-91" edge="1">
          <mxGeometry width="50" height="50" relative="1" as="geometry">
            <mxPoint x="340" y="720" as="sourcePoint" />
            <mxPoint x="390" y="670" as="targetPoint" />
          </mxGeometry>
        </mxCell>
        <mxCell id="xZ9wBhcrswutEA7cSDEz-102" value="" style="endArrow=classic;html=1;rounded=0;exitX=0.5;exitY=0.5;exitDx=0;exitDy=0;exitPerimeter=0;entryX=0.5;entryY=0;entryDx=0;entryDy=0;" parent="1" source="xZ9wBhcrswutEA7cSDEz-4" target="xZ9wBhcrswutEA7cSDEz-96" edge="1">
          <mxGeometry width="50" height="50" relative="1" as="geometry">
            <mxPoint x="120" y="450" as="sourcePoint" />
            <mxPoint x="170" y="400" as="targetPoint" />
          </mxGeometry>
        </mxCell>
        <mxCell id="xZ9wBhcrswutEA7cSDEz-103" value="&lt;font style=&quot;font-size: 9px;&quot;&gt;로그아웃&lt;/font&gt;" style="ellipse;whiteSpace=wrap;html=1;" parent="1" vertex="1">
          <mxGeometry x="205" y="700" width="45" height="30" as="geometry" />
        </mxCell>
        <mxCell id="xZ9wBhcrswutEA7cSDEz-104" value="&lt;font style=&quot;font-size: 8px;&quot;&gt;회원 탈퇴&lt;/font&gt;" style="ellipse;whiteSpace=wrap;html=1;" parent="1" vertex="1">
          <mxGeometry x="230" y="610" width="45" height="30" as="geometry" />
        </mxCell>
        <mxCell id="xZ9wBhcrswutEA7cSDEz-105" value="" style="endArrow=classic;html=1;rounded=0;entryX=0;entryY=0;entryDx=0;entryDy=0;exitX=0.5;exitY=0.5;exitDx=0;exitDy=0;exitPerimeter=0;" parent="1" source="xZ9wBhcrswutEA7cSDEz-3" target="xZ9wBhcrswutEA7cSDEz-104" edge="1">
          <mxGeometry width="50" height="50" relative="1" as="geometry">
            <mxPoint x="250" y="580" as="sourcePoint" />
            <mxPoint x="300" y="530" as="targetPoint" />
          </mxGeometry>
        </mxCell>
        <mxCell id="xZ9wBhcrswutEA7cSDEz-106" value="" style="endArrow=classic;html=1;rounded=0;entryX=0.008;entryY=0.316;entryDx=0;entryDy=0;entryPerimeter=0;exitX=0.5;exitY=0.5;exitDx=0;exitDy=0;exitPerimeter=0;" parent="1" source="xZ9wBhcrswutEA7cSDEz-3" target="xZ9wBhcrswutEA7cSDEz-103" edge="1">
          <mxGeometry width="50" height="50" relative="1" as="geometry">
            <mxPoint x="78.13" y="556.46" as="sourcePoint" />
            <mxPoint x="170.13" y="680.46" as="targetPoint" />
          </mxGeometry>
        </mxCell>
        <mxCell id="yDY8tDTbJRsx6tdh9yl8-1" value="" style="endArrow=classic;html=1;rounded=0;entryX=0;entryY=0.5;entryDx=0;entryDy=0;exitX=0.5;exitY=0.5;exitDx=0;exitDy=0;exitPerimeter=0;" edge="1" parent="1" source="xZ9wBhcrswutEA7cSDEz-4" target="xZ9wBhcrswutEA7cSDEz-37">
          <mxGeometry width="50" height="50" relative="1" as="geometry">
            <mxPoint x="170" y="400" as="sourcePoint" />
            <mxPoint x="220" y="350" as="targetPoint" />
          </mxGeometry>
        </mxCell>
        <mxCell id="yDY8tDTbJRsx6tdh9yl8-2" value="" style="endArrow=classic;html=1;rounded=0;exitX=0.5;exitY=0.5;exitDx=0;exitDy=0;exitPerimeter=0;entryX=0.088;entryY=0.553;entryDx=0;entryDy=0;entryPerimeter=0;" edge="1" parent="1" source="xZ9wBhcrswutEA7cSDEz-4" target="xZ9wBhcrswutEA7cSDEz-1">
          <mxGeometry width="50" height="50" relative="1" as="geometry">
            <mxPoint x="190" y="455" as="sourcePoint" />
            <mxPoint x="240" y="405" as="targetPoint" />
          </mxGeometry>
        </mxCell>
        <mxCell id="yDY8tDTbJRsx6tdh9yl8-3" value="" style="endArrow=classic;html=1;rounded=0;entryX=0.02;entryY=0.65;entryDx=0;entryDy=0;entryPerimeter=0;" edge="1" parent="1" target="xZ9wBhcrswutEA7cSDEz-55">
          <mxGeometry width="50" height="50" relative="1" as="geometry">
            <mxPoint x="200" y="530" as="sourcePoint" />
            <mxPoint x="80" y="390" as="targetPoint" />
          </mxGeometry>
        </mxCell>
        <mxCell id="yDY8tDTbJRsx6tdh9yl8-4" value="Qna" style="ellipse;whiteSpace=wrap;html=1;fontColor=#CC6600;strokeWidth=3;" vertex="1" parent="1">
          <mxGeometry x="460" y="605" width="70" height="40" as="geometry" />
        </mxCell>
        <mxCell id="yDY8tDTbJRsx6tdh9yl8-5" value="" style="endArrow=classic;html=1;rounded=0;exitX=0.5;exitY=0.5;exitDx=0;exitDy=0;exitPerimeter=0;" edge="1" parent="1" source="xZ9wBhcrswutEA7cSDEz-11" target="yDY8tDTbJRsx6tdh9yl8-9">
          <mxGeometry width="50" height="50" relative="1" as="geometry">
            <mxPoint x="560" y="550" as="sourcePoint" />
            <mxPoint x="610" y="500" as="targetPoint" />
          </mxGeometry>
        </mxCell>
        <mxCell id="yDY8tDTbJRsx6tdh9yl8-6" value="" style="endArrow=classic;html=1;rounded=0;exitX=0.5;exitY=0.5;exitDx=0;exitDy=0;exitPerimeter=0;" edge="1" parent="1" source="xZ9wBhcrswutEA7cSDEz-3">
          <mxGeometry width="50" height="50" relative="1" as="geometry">
            <mxPoint x="90" y="730" as="sourcePoint" />
            <mxPoint x="190" y="790" as="targetPoint" />
          </mxGeometry>
        </mxCell>
        <mxCell id="yDY8tDTbJRsx6tdh9yl8-8" value="" style="endArrow=classic;html=1;rounded=0;entryX=0.239;entryY=0.938;entryDx=0;entryDy=0;entryPerimeter=0;" edge="1" parent="1" target="yDY8tDTbJRsx6tdh9yl8-4">
          <mxGeometry width="50" height="50" relative="1" as="geometry">
            <mxPoint x="192.5" y="790.83" as="sourcePoint" />
            <mxPoint x="482.80192521669187" y="660.001026515013" as="targetPoint" />
          </mxGeometry>
        </mxCell>
        <mxCell id="yDY8tDTbJRsx6tdh9yl8-9" value="답변&lt;div style=&quot;font-size: 8px;&quot;&gt;및 관리&lt;/div&gt;" style="ellipse;whiteSpace=wrap;html=1;fontSize=8;" vertex="1" parent="1">
          <mxGeometry x="490" y="550" width="60" height="20" as="geometry" />
        </mxCell>
        <mxCell id="yDY8tDTbJRsx6tdh9yl8-10" value="" style="endArrow=classic;html=1;rounded=0;exitX=0.435;exitY=0.911;exitDx=0;exitDy=0;exitPerimeter=0;" edge="1" parent="1" source="yDY8tDTbJRsx6tdh9yl8-9" target="yDY8tDTbJRsx6tdh9yl8-4">
          <mxGeometry width="50" height="50" relative="1" as="geometry">
            <mxPoint x="510" y="720" as="sourcePoint" />
            <mxPoint x="560" y="670" as="targetPoint" />
          </mxGeometry>
        </mxCell>
      </root>
    </mxGraphModel>
  </diagram>
</mxfile>
